<svg width="200" height="141" viewBox="0 0 200 141" fill="none" xmlns="http://www.w3.org/2000/svg">
<path fill-rule="evenodd" clip-rule="evenodd" d="M75.2482 0.371404C73.5997 0.595328 67.98 1.26014 62.7598 1.8503C35.5563 4.92553 16.2903 11.9647 12.331 20.2758C11.4378 22.1498 9.38175 24.6597 7.76127 25.853C6.13978 27.0473 4.81402 28.6227 4.81402 29.3542C4.81402 30.0857 3.69007 31.1098 2.31636 31.6303C-0.688833 32.7688 -0.679841 32.6653 1.82182 36.888C3.80596 40.2399 3.92885 40.2847 15.559 41.9079C36.7262 44.8617 40.8743 44.9841 52.985 43.0106C59.1852 42.0005 63.4272 41.0003 62.4112 40.7883C53.3616 38.9023 104.246 29.4507 130.197 28.1968C138.157 27.8126 137.528 27.9738 124.702 29.599L110.215 31.4362L123.703 30.7863C131.121 30.43 147.081 30.1374 159.17 30.1374H181.149L181.784 40.0896C182.132 45.5633 184.231 59.2227 186.447 70.4438C188.664 81.665 190.78 94.0485 191.15 97.9627C192.041 107.39 190.36 115.34 186.564 119.646L183.654 122.948L164.12 123.677C146.156 124.348 144.427 124.264 142.613 122.628C140.697 120.9 138.48 114.498 137.25 107.145C136.709 103.903 136.068 103.28 130.924 100.986C103.47 88.743 61.7638 87.2203 40.9982 97.7029C35.1437 100.658 29.4969 105.952 30.4431 107.599C30.8097 108.237 30.7618 108.447 30.3362 108.065C29.9106 107.683 27.8075 109.696 25.6635 112.539C23.5195 115.381 22.2227 117.858 22.7812 118.043C23.3397 118.228 23.7963 119.308 23.7963 120.442C23.7963 122.432 23.8642 122.442 25.7704 120.723C26.8564 119.745 27.5488 118.626 27.308 118.239C27.0682 117.851 28.4269 116.032 30.3292 114.196C32.2314 112.36 33.7869 110.157 33.7869 109.301C33.7869 107.638 37.5974 104.759 38.5465 105.705C38.8592 106.017 38.5005 106.272 37.7502 106.272C36.7192 106.272 36.6662 106.552 37.5364 107.419C38.3766 108.256 38.3956 109.112 37.6064 110.582C36.2896 113.033 34.6561 126.671 35.4364 128.698C36.1757 130.618 41.7895 132.103 44.0274 130.971C45.0524 130.453 45.7697 128.97 45.7607 127.385C45.7488 125.275 45.533 125.011 44.7767 126.176C44.0633 127.276 43.8086 126.621 43.8086 123.688C43.8086 118.318 45.1014 116.343 47.606 117.889C49.1226 118.824 49.8179 118.737 51.1097 117.45C51.9959 116.567 52.959 116.082 53.2487 116.37C53.5385 116.659 54.2248 120.425 54.7743 124.738C55.8583 133.253 57.3199 135.724 60.6498 134.67C62.2243 134.174 62.7598 133.186 62.7598 130.787C62.7598 126.705 64.3024 125.181 68.4355 125.181C71.186 125.181 71.8194 125.621 72.3699 127.918C73.293 131.769 74.5149 133.017 76.7837 132.426C79.0077 131.847 79.1285 131.293 77.7968 127.801C76.9376 125.552 77.1314 125.255 79.8349 124.663C84.3117 123.684 87.7365 126.292 87.7365 130.678C87.7365 134.009 87.5966 134.139 83.99 134.16C79.2015 134.187 62.6749 137.805 61.3612 139.114C60.0923 140.378 65.2295 140.388 77.2463 139.145C105.459 136.228 110.889 136.03 115.422 137.755C119.686 139.377 119.823 139.365 121.843 137.205C123.192 135.762 124.477 135.243 125.553 135.705C126.458 136.095 141.586 136.316 159.17 136.2C183.411 136.039 191.455 135.682 192.443 134.724C193.16 134.029 194.396 130.479 195.19 126.833C195.984 123.188 197.301 117.182 198.116 113.487C200.233 103.884 200.118 102.727 195.094 82.8841C191.718 69.5551 190.306 61.659 189.574 52.0323C188.191 33.8168 186.487 28.3839 180.193 22.1C177.183 19.0945 173.178 16.3039 170.303 15.2111C167.647 14.2 164.243 12.1488 162.74 10.651C159.563 7.48723 150.382 4.42095 137.248 2.13792C128.625 0.639118 82.889 -0.663625 75.2482 0.371404ZM122.704 5.79436C131.293 7.14388 141.225 10.4649 158.069 17.6186L171.931 23.5053L167.549 24.0397C165.138 24.3343 158.221 24.8259 152.176 25.1335C140.53 25.7266 118.028 27.734 95.729 30.1713C54.5255 34.6737 26.7945 35.9008 19.9489 33.5232C8.00304 29.3751 32.7209 15.654 63.0875 9.57719C71.4247 7.9082 79.8189 6.19344 81.7421 5.7655C86.9612 4.60507 115.26 4.62497 122.704 5.79436ZM103.535 32.31C104.255 32.5976 105.117 32.5618 105.449 32.2314C105.781 31.901 105.191 31.6661 104.138 31.7089C102.974 31.7567 102.737 31.9925 103.535 32.31ZM135.692 42.1647C123.958 44.2138 120.438 45.1125 113.403 47.8543C103.56 51.6929 96.852 57.8772 92.512 67.1168C89.0762 74.4297 89.1751 76.7884 92.9326 77.2223C95.1066 77.4731 95.9358 76.9078 97.3105 74.2366C98.912 71.1246 100.266 69.2874 107.054 61.0032C113.134 53.5858 129.777 48.4565 148.444 48.2475C159.112 48.129 160 47.6364 155.536 44.3163C153.012 42.4394 141.357 41.1754 135.692 42.1647ZM36.4594 50.1055C28.8785 51.7954 20.3165 55.3006 15.6089 58.6395L12.5138 60.835L14.7687 62.6533C17.7289 65.0408 22.2977 64.9622 25.8204 62.4632C29.7327 59.6885 46.532 56.2908 56.7655 56.2052C70.4097 56.0908 74.411 59.2626 73.4828 69.4586C72.5487 79.7203 75.0034 84.2505 78.9008 79.4566C81.5513 76.1952 81.3585 68.1011 78.4951 62.4443C76.0424 57.5985 69.2038 52.3517 62.9367 50.5066C56.6336 48.6515 43.8495 48.4574 36.4594 50.1055ZM118.063 65.5006C115.522 66.4739 110.715 72.4671 110.715 74.6626C110.715 75.5105 112.02 77.5955 113.613 79.2953C117.907 83.8743 124.394 83.3429 130.912 77.8801C132.527 76.5266 134.712 75.4199 135.769 75.4199C138.235 75.4199 138.308 72.3049 135.891 70.1264C132.352 66.9347 121.6 64.1451 118.063 65.5006ZM42.2001 69.2844C36.1647 72.1059 30.6219 80.3383 33.4752 82.2442C34.0017 82.5965 34.6981 83.6046 35.0228 84.4844C35.3615 85.401 37.2537 86.3425 39.4456 86.6858C46.2972 87.7587 54.6614 84.7989 61.4341 78.9052C64.6511 76.1057 65.0827 75.2886 64.1525 73.7569C60.8916 68.3818 49.2175 66.0032 42.2001 69.2844ZM68.7542 93.3339C67.93 93.8644 66.8061 94.2983 66.2566 94.2983C65.7071 94.2983 65.9319 93.8644 66.7561 93.3339C67.5803 92.8035 68.7043 92.3695 69.2538 92.3695C69.8033 92.3695 69.5785 92.8035 68.7542 93.3339ZM59.2631 95.3243C58.9234 95.8717 58.1102 96.3126 57.4558 96.3046C56.7405 96.2947 56.8644 95.9036 57.7645 95.3243C59.6837 94.0883 60.0294 94.0883 59.2631 95.3243ZM90.396 97.1456C91.3891 98.73 91.1913 98.8813 88.6137 98.5041C85.2778 98.0164 83.8941 96.4599 85.7693 95.3054C87.4258 94.2853 88.9933 94.9083 90.396 97.1456ZM74.5079 96.5425C74.2831 97.2133 72.6536 98.0562 70.8862 98.4155C69.1189 98.7758 66.87 99.7949 65.8869 100.681C63.8258 102.54 62.7598 102.734 62.7598 101.25C62.7598 100.288 72.198 95.3562 74.0823 95.3343C74.5408 95.3283 74.7317 95.8727 74.5079 96.5425ZM54.7673 97.7059C54.7673 97.9209 54.0929 98.3548 53.2687 98.6703C52.4445 98.9848 51.7701 98.8086 51.7701 98.2792C51.7701 97.7487 52.4445 97.3148 53.2687 97.3148C54.0929 97.3148 54.7673 97.4909 54.7673 97.7059ZM95.1046 107.118C94.2574 108.339 92.7408 105.63 92.7878 102.979L92.8447 99.8028L94.0955 103.286C94.7839 105.202 95.2375 106.927 95.1046 107.118ZM122.263 102.843C124.091 104.303 124.06 104.323 121.705 103.206C118.647 101.755 118.08 101.296 119.349 101.296C119.885 101.296 121.196 101.992 122.263 102.843ZM51.1877 104.148C51.4824 104.623 50.797 105.846 49.6651 106.866C47.619 108.71 47.614 108.705 48.8499 106.004C50.2116 103.025 50.3994 102.877 51.1877 104.148ZM110.264 113.023C109.408 113.877 106.717 111.09 106.752 109.385C106.778 108.132 107.236 108.304 108.775 110.145C109.87 111.454 110.54 112.75 110.264 113.023ZM127.071 114.482C128.429 116.261 129.865 119.06 130.26 120.702C131.147 124.395 130.839 124.105 126.29 116.97C122.396 110.862 122.953 109.09 127.071 114.482ZM78.5661 116.158C78.7978 118.516 78.5201 119.303 77.567 118.991C76.8417 118.753 76.1024 117.09 75.9265 115.294C75.6948 112.937 75.9725 112.15 76.9256 112.462C77.6509 112.7 78.3902 114.363 78.5661 116.158ZM86.3268 114.729C87.2759 118.498 86.1889 120.515 83.8721 119.28C81.0438 117.772 80.3274 115.008 82.3785 113.513C84.8782 111.693 85.6195 111.921 86.3268 114.729ZM96.3644 113.73C96.6801 114.548 97.2746 115.01 97.6872 114.756C98.0998 114.501 98.2257 115.4 97.9659 116.751C97.3305 120.065 94.1495 120.013 93.3093 116.676C92.3322 112.8 95.0117 110.218 96.3644 113.73ZM68.7542 114.187C68.7542 115.968 66.4874 120.094 65.2485 120.568C64.2934 120.933 64.2385 120.151 65.0057 117.14C65.5592 114.967 66.6102 113.238 67.3775 113.238C68.1348 113.238 68.7542 113.665 68.7542 114.187ZM123.703 121.513C123.703 123.108 123.448 123.223 122.204 122.195C121.38 121.514 120.72 119.78 120.738 118.342C120.768 115.827 120.826 115.801 122.236 117.658C123.042 118.721 123.703 120.455 123.703 121.513ZM111.221 119.216C113.407 121.623 112.99 122.256 109.966 121.116C108.73 120.65 107.718 119.583 107.718 118.744C107.718 116.653 109.056 116.833 111.221 119.216ZM128.413 125.797C127.455 126.751 124.606 124.15 125.33 122.983C125.692 122.4 126.574 122.638 127.508 123.569C128.371 124.43 128.779 125.432 128.413 125.797ZM99.1818 126.519C100.536 127.505 100.843 128.553 100.353 130.499C99.1888 135.12 94.73 133.113 94.73 127.968C94.73 124.904 96.2755 124.402 99.1818 126.519ZM113.092 129.704C113.386 130.466 113.152 131.38 112.573 131.735C111.206 132.578 108.284 129.668 109.13 128.306C109.942 126.997 112.38 127.858 113.092 129.704ZM122.433 130.758C122.101 131.089 121.239 131.124 120.519 130.837C119.722 130.519 119.958 130.283 121.122 130.236C122.175 130.193 122.765 130.428 122.433 130.758Z" fill="black"/>
</svg>
